<?xml version="1.0" encoding="UTF-8"?>
<svg version="1.1" xmlns="http://www.w3.org/2000/svg" width="512" height="512">
<path d="M0 0 C1.01790619 0.00215515 2.03581238 0.0043103 3.08456421 0.00653076 C17.69363523 0.05620146 32.02575853 0.30709809 46.375 3.3125 C47.34985352 3.51117676 48.32470703 3.70985352 49.32910156 3.91455078 C97.7109774 14.03517194 141.69928269 35.9516877 177.375 70.3125 C178.3640332 71.26068604 178.3640332 71.26068604 179.37304688 72.22802734 C188.86130305 81.37247479 197.6012044 90.66984009 205.375 101.3125 C206.23306152 102.46355017 207.09113451 103.61459177 207.94921875 104.765625 C213.98736829 112.95680614 219.34595521 121.47054105 224.375 130.3125 C224.73948242 130.94430176 225.10396484 131.57610352 225.47949219 132.22705078 C247.08534998 169.97532572 256.85198095 212.74189997 256.6875 255.9375 C256.68534485 256.95540619 256.6831897 257.97331238 256.68096924 259.02206421 C256.63129854 273.63113523 256.38040191 287.96325853 253.375 302.3125 C253.07698486 303.77478027 253.07698486 303.77478027 252.77294922 305.26660156 C242.65232806 353.6484774 220.7358123 397.63678269 186.375 433.3125 C185.74287598 433.97185547 185.11075195 434.63121094 184.45947266 435.31054688 C175.31502521 444.79880305 166.01765991 453.5387044 155.375 461.3125 C154.22394983 462.17056152 153.07290823 463.02863451 151.921875 463.88671875 C143.73224019 469.92427396 135.22961724 475.30707302 126.375 480.3125 C125.66778809 480.7146875 124.96057617 481.116875 124.23193359 481.53125 C101.09654164 494.5566741 75.92537591 503.30551461 49.9375 508.625 C49.21860596 508.77235596 48.49971191 508.91971191 47.7590332 509.0715332 C33.08339502 511.86090125 18.55831162 512.66142619 3.64770508 512.62817383 C0.70811513 512.6250221 -2.2304558 512.64854926 -5.16992188 512.67382812 C-18.54306192 512.71848737 -31.43916711 511.51301542 -44.625 509.3125 C-46.33055054 509.03031616 -46.33055054 509.03031616 -48.07055664 508.74243164 C-91.33802759 500.97044532 -132.38793216 480.98345309 -165.625 452.3125 C-166.37007813 451.67828125 -167.11515625 451.0440625 -167.8828125 450.390625 C-181.38779833 438.57948485 -194.05918743 425.82889772 -204.625 411.3125 C-205.48149066 410.16255169 -206.33826433 409.01281411 -207.1953125 407.86328125 C-213.23534209 399.67315742 -218.61867614 391.16870382 -223.625 382.3125 C-224.0271875 381.60528809 -224.429375 380.89807617 -224.84375 380.16943359 C-237.8691741 357.03404164 -246.61801461 331.86287591 -251.9375 305.875 C-252.08485596 305.15610596 -252.23221191 304.43721191 -252.3840332 303.6965332 C-255.35789088 288.05024391 -255.99800362 272.57681954 -255.9375 256.6875 C-255.93534485 255.66959381 -255.9331897 254.65168762 -255.93096924 253.60293579 C-255.88129854 238.99386477 -255.63040191 224.66174147 -252.625 210.3125 C-252.42632324 209.33764648 -252.22764648 208.36279297 -252.02294922 207.35839844 C-241.90232806 158.9765226 -219.9858123 114.98821731 -185.625 79.3125 C-184.99287598 78.65314453 -184.36075195 77.99378906 -183.70947266 77.31445312 C-174.56502521 67.82619695 -165.26765991 59.0862956 -154.625 51.3125 C-153.47394983 50.45443848 -152.32290823 49.59636549 -151.171875 48.73828125 C-142.98224019 42.70072604 -134.47961724 37.31792698 -125.625 32.3125 C-124.91778809 31.9103125 -124.21057617 31.508125 -123.48193359 31.09375 C-100.34654164 18.0683259 -75.17537591 9.31948539 -49.1875 4 C-48.46860596 3.85264404 -47.74971191 3.70528809 -47.0090332 3.5534668 C-31.36274391 0.57960912 -15.88931954 -0.06050362 0 0 Z " fill="#252A3F" transform="translate(255.625,-0.3125)"/>
<path d="M0 0 C1.05864258 -0.00137466 2.11728516 -0.00274933 3.20800781 -0.00416565 C4.35887375 -0.00057037 5.50973969 0.0030249 6.69548035 0.00672913 C8.52537003 0.00651009 8.52537003 0.00651009 10.39222717 0.00628662 C13.72862594 0.00686309 17.0649625 0.01187159 20.40135026 0.01886058 C23.89137478 0.02512022 27.38140017 0.02569998 30.87142944 0.02688599 C37.47634879 0.0299916 44.08125155 0.03819462 50.6861636 0.04823548 C58.20729498 0.0594205 65.72842715 0.06491309 73.24956477 0.06993091 C88.71746745 0.08037788 104.18535359 0.09796242 119.65324402 0.12025452 C119.65911026 1.20940155 119.6649765 2.29854858 119.67102051 3.42070007 C119.72826296 13.69084475 119.80103271 23.96077801 119.88895893 34.23070717 C119.9336637 39.51044307 119.97291972 44.79010178 119.99967957 50.06996155 C120.02571128 55.1664595 120.06611308 60.26266044 120.11643028 65.35897446 C120.13309983 67.30215635 120.14461356 69.24538961 120.15085793 71.18863297 C120.16049797 73.91306353 120.18855621 76.63673412 120.22087097 79.36097717 C120.21943588 80.16227051 120.21800079 80.96356384 120.21652222 81.78913879 C120.30864258 87.28994534 121.31278261 91.5542799 125.15324402 95.76478577 C130.49335995 99.92284479 134.40859751 100.27845958 140.98014832 100.32557678 C141.82914703 100.33547638 142.67814575 100.34537598 143.5528717 100.35557556 C146.36104029 100.38718035 149.1692258 100.411944 151.97746277 100.43666077 C153.92374106 100.45723117 155.8700149 100.47822767 157.81628418 100.49963379 C162.9405303 100.5548455 168.06481667 100.60425879 173.18913269 100.65248108 C179.33656979 100.71153152 185.48393327 100.77775458 191.63130951 100.84278107 C200.9719094 100.94077927 210.31255638 101.0296431 219.65324402 101.12025452 C219.65324402 116.63025452 219.65324402 132.14025452 219.65324402 148.12025452 C224.60324402 148.12025452 229.55324402 148.12025452 234.65324402 148.12025452 C238.04082971 148.97787115 240.57538229 149.71567476 243.65324402 151.12025452 C244.30293152 151.37548889 244.95261902 151.63072327 245.62199402 151.89369202 C256.46664954 156.58443587 264.33467756 165.7846427 268.64543152 176.61244202 C269.38832362 178.7703667 270.05759528 180.91763977 270.65324402 183.12025452 C270.82546478 183.71842987 270.99768555 184.31660522 271.17512512 184.9329071 C271.71002105 187.38000392 271.80920254 189.62086026 271.84611511 192.12562561 C271.8702095 193.61900955 271.8702095 193.61900955 271.89479065 195.14256287 C271.9396747 199.71828799 271.98035971 204.29387154 272.00334167 208.86976624 C272.01982094 211.268954 272.04700304 213.66809433 272.08537292 216.06703186 C272.37777393 234.46795406 271.85736681 249.88139637 258.65324402 264.12025452 C252.06015817 270.05303131 245.14882312 273.68311108 236.65324402 276.12025452 C235.79750793 276.3872113 235.79750793 276.3872113 234.92448425 276.65956116 C231.8889022 277.27529192 228.99760952 277.21369817 225.90324402 277.18275452 C224.73277527 277.17373108 223.56230652 277.16470764 222.35636902 277.15541077 C221.46433777 277.1438092 220.57230652 277.13220764 219.65324402 277.12025452 C219.6687883 277.76124084 219.68433258 278.40222717 219.7003479 279.06263733 C219.85677239 285.81235571 219.96142533 292.56154908 220.0377655 299.31263733 C220.07268891 301.82261614 220.12024589 304.33245553 220.18132019 306.8419342 C220.59812199 324.42466543 220.11423424 337.96916939 208.84074402 352.24525452 C201.11764215 360.0880944 190.20403544 365.83859714 179.12987232 366.25168228 C177.74728701 366.2597451 176.36466345 366.26238347 174.98205566 366.26069641 C174.21713135 366.26366753 173.45220704 366.26663866 172.66410321 366.26969981 C170.10488965 366.27836067 167.54572301 366.27989285 164.98649597 366.28138733 C163.14978944 366.28601739 161.31308386 366.2910423 159.47637939 366.2964325 C154.48856016 366.30954121 149.50075438 366.31599858 144.51292062 366.32044315 C141.39462049 366.3233766 138.27632402 366.32748195 135.15802574 366.33194733 C125.39553702 366.34561881 115.63305667 366.35528693 105.87055904 366.35914922 C94.61262536 366.36362795 83.35481322 366.38116878 72.0969165 366.41014981 C63.38759944 366.43178942 54.67831651 366.44185473 45.96897286 366.44319034 C40.77078494 366.44423681 35.57271132 366.45011106 30.37455177 366.46800995 C25.48174904 366.48452981 20.58914605 366.48662713 15.6963253 366.47787094 C13.90573973 366.47710264 12.11514325 366.48141588 10.32458496 366.49132919 C-5.55404079 366.57404768 -18.45158237 364.23367013 -30.49909973 353.12025452 C-39.88139896 342.9643619 -42.99585305 330.03838717 -42.73738098 316.57337952 C-42.73172119 315.43616455 -42.7260614 314.29894958 -42.7202301 313.12727356 C-42.69807105 309.54114852 -42.64791299 305.95607092 -42.59675598 302.37025452 C-42.57666455 299.91974824 -42.55841846 297.46922611 -42.54206848 295.01869202 C-42.49827372 289.05219662 -42.43157034 283.08630043 -42.34675598 277.12025452 C-43.63694641 277.14853333 -43.63694641 277.14853333 -44.95320129 277.17738342 C-57.57736803 277.33895855 -67.24981144 274.87402627 -77.34675598 267.12025452 C-78.21300598 266.54275452 -79.07925598 265.96525452 -79.97175598 265.37025452 C-88.3687177 257.41523815 -93.81125561 246.22181755 -94.493927 234.61888123 C-94.50377121 233.73938812 -94.51361542 232.85989502 -94.52375793 231.95375061 C-94.53659317 230.94855377 -94.54942841 229.94335693 -94.56265259 228.90769958 C-94.57003952 227.83057709 -94.57742645 226.75345459 -94.58503723 225.64369202 C-94.59310898 224.52266083 -94.60118073 223.40162964 -94.60949707 222.24662781 C-94.62331295 219.87460362 -94.63404623 217.50255977 -94.641922 215.13050842 C-94.65342705 212.71768828 -94.67385521 210.3048933 -94.70344543 207.89222717 C-94.74634667 204.39254077 -94.76232386 200.89360953 -94.77253723 197.39369202 C-94.79004532 196.3287149 -94.80755341 195.26373779 -94.82559204 194.16648865 C-94.79096005 182.04338574 -90.33386701 170.72745919 -82.15925598 161.70619202 C-72.85463105 152.78925979 -62.93415695 147.91032853 -50.09675598 148.05775452 C-49.35167786 148.06226624 -48.60659973 148.06677795 -47.83894348 148.07142639 C-46.00817958 148.08316206 -44.17745725 148.10109601 -42.34675598 148.12025452 C-42.35044315 147.54802249 -42.35413033 146.97579046 -42.35792923 146.38621807 C-42.44651587 132.42089497 -42.51232372 118.45562153 -42.55400467 104.49007702 C-42.57457336 97.73624731 -42.60258384 90.98260589 -42.64851379 84.22889709 C-42.69285202 77.70609565 -42.71592221 71.183416 -42.72626495 64.66047096 C-42.73363178 62.17709088 -42.74801729 59.69372098 -42.76967621 57.21042442 C-42.79889061 53.72074522 -42.80270433 50.23186332 -42.80085754 46.74208069 C-42.81523865 45.72499527 -42.82961975 44.70790985 -42.84443665 43.66000366 C-42.77342995 31.18662361 -37.82362996 21.3104406 -29.57331848 12.15150452 C-21.67396603 4.55212747 -10.94110792 -0.01099609 0 0 Z " fill="#86B959" transform="translate(167.3467559814453,72.87974548339844)"/>
<path d="M0 0 C1.05864258 -0.00137466 2.11728516 -0.00274933 3.20800781 -0.00416565 C4.35887375 -0.00057037 5.50973969 0.0030249 6.69548035 0.00672913 C8.52537003 0.00651009 8.52537003 0.00651009 10.39222717 0.00628662 C13.72862594 0.00686309 17.0649625 0.01187159 20.40135026 0.01886058 C23.89137478 0.02512022 27.38140017 0.02569998 30.87142944 0.02688599 C37.47634879 0.0299916 44.08125155 0.03819462 50.6861636 0.04823548 C58.20729498 0.0594205 65.72842715 0.06491309 73.24956477 0.06993091 C88.71746745 0.08037788 104.18535359 0.09796242 119.65324402 0.12025452 C119.65911026 1.20940155 119.6649765 2.29854858 119.67102051 3.42070007 C119.72826296 13.69084475 119.80103271 23.96077801 119.88895893 34.23070717 C119.9336637 39.51044307 119.97291972 44.79010178 119.99967957 50.06996155 C120.02571128 55.1664595 120.06611308 60.26266044 120.11643028 65.35897446 C120.13309983 67.30215635 120.14461356 69.24538961 120.15085793 71.18863297 C120.16049797 73.91306353 120.18855621 76.63673412 120.22087097 79.36097717 C120.21943588 80.16227051 120.21800079 80.96356384 120.21652222 81.78913879 C120.30864258 87.28994534 121.31278261 91.5542799 125.15324402 95.76478577 C130.49335995 99.92284479 134.40859751 100.27845958 140.98014832 100.32557678 C141.82914703 100.33547638 142.67814575 100.34537598 143.5528717 100.35557556 C146.36104029 100.38718035 149.1692258 100.411944 151.97746277 100.43666077 C153.92374106 100.45723117 155.8700149 100.47822767 157.81628418 100.49963379 C162.9405303 100.5548455 168.06481667 100.60425879 173.18913269 100.65248108 C179.33656979 100.71153152 185.48393327 100.77775458 191.63130951 100.84278107 C200.9719094 100.94077927 210.31255638 101.0296431 219.65324402 101.12025452 C219.65324402 116.63025452 219.65324402 132.14025452 219.65324402 148.12025452 C133.19324402 148.12025452 46.73324402 148.12025452 -42.34675598 148.12025452 C-42.34675598 26.33170826 -42.34675598 26.33170826 -29.57331848 12.15150452 C-21.67396603 4.55212747 -10.94110792 -0.01099609 0 0 Z " fill="#FEFEFD" transform="translate(167.3467559814453,72.87974548339844)"/>
<path d="M0 0 C86.46 0 172.92 0 262 0 C262 64.14486434 262 64.14486434 249.171875 77.171875 C239.77733986 85.0795053 229.54872988 89.15535268 217.32881165 89.14044189 C216.56388734 89.14341302 215.79896303 89.14638414 215.01085919 89.1494453 C212.45164563 89.15810616 209.892479 89.15963833 207.33325195 89.16113281 C205.49654542 89.16576287 203.65983984 89.17078778 201.82313538 89.17617798 C196.83531614 89.18928669 191.84751036 89.19574407 186.8596766 89.20018864 C183.74137647 89.20312209 180.62308 89.20722743 177.50478172 89.21169281 C167.742293 89.22536429 157.97981265 89.23503242 148.21731502 89.2388947 C136.95938134 89.24337343 125.7015692 89.26091427 114.44367248 89.2898953 C105.73435542 89.3115349 97.02507249 89.32160022 88.31572884 89.32293582 C83.11754092 89.3239823 77.9194673 89.32985654 72.72130775 89.34775543 C67.82850502 89.36427529 62.93590203 89.36637262 58.04308128 89.35761642 C56.25249572 89.35684812 54.46189923 89.36116137 52.67134094 89.37107468 C36.79271519 89.45379316 23.89517361 87.11341562 11.84765625 76 C-6.91241744 55.69311262 0 24.63887799 0 0 Z " fill="#FEFEFE" transform="translate(125,350)"/>
<path d="M0 0 C1.12164994 0.9565422 2.24261112 1.91389208 3.36328125 2.87158203 C3.98759033 3.40461945 4.61189941 3.93765686 5.25512695 4.48684692 C7.24613492 6.21344808 9.14059221 8.00757752 11 9.875 C11.8971875 10.76832031 11.8971875 10.76832031 12.8125 11.6796875 C14.64913879 13.6278365 16.39527166 15.61211676 18.13954163 17.64173889 C21.90946125 21.95694436 25.88948983 26.01697163 29.95483398 30.05249023 C30.71663467 30.81283066 31.47843536 31.57317108 32.26332092 32.35655212 C33.90289223 33.992343 35.54361687 35.62697857 37.18539238 37.26055717 C39.78012954 39.8424612 42.37166861 42.42753754 44.9624176 45.01344299 C50.45130407 50.49094801 55.944129 55.96449301 61.4375 61.4375 C67.82825484 67.80467937 74.21739892 74.17345782 80.60237312 80.5464344 C83.1619641 83.09951908 85.72453422 85.64958818 88.28721619 88.1995697 C89.84193288 89.75065712 91.39651117 91.30188329 92.95092773 92.85327148 C93.66928802 93.56646545 94.38764832 94.27965942 95.1277771 95.01446533 C95.773965 95.66058273 96.42015289 96.30670013 97.08592224 96.97239685 C97.65202933 97.53628333 98.21813643 98.10016981 98.80139828 98.68114376 C100 100 100 100 100 101 C88.76027298 101.06954847 77.52059726 101.12283599 66.28069878 101.15543652 C61.06140409 101.17108411 55.84225676 101.19230601 50.62304688 101.22631836 C45.58504922 101.25894387 40.54719321 101.27685983 35.50909805 101.28463173 C33.58818457 101.29016949 31.66727873 101.3009834 29.74642563 101.31719017 C27.05327426 101.33900679 24.36070617 101.34196515 21.66748047 101.34057617 C20.87553787 101.351362 20.08359528 101.36214783 19.26765442 101.3732605 C13.62033403 101.34180007 9.42184875 100.23399046 5.13671875 96.28125 C4.65847656 95.6934375 4.18023437 95.105625 3.6875 94.5 C3.19636719 93.9121875 2.70523437 93.324375 2.19921875 92.71875 C-0.6239407 88.67252799 -0.13439129 84.29436087 -0.11352539 79.58129883 C-0.11367142 78.72254654 -0.11381744 77.86379425 -0.1139679 76.97901917 C-0.11327079 74.1383309 -0.10548783 71.29770807 -0.09765625 68.45703125 C-0.09579135 66.48833756 -0.09436779 64.51964341 -0.09336853 62.5509491 C-0.08954901 57.36746949 -0.07972352 52.18401786 -0.06866455 47.00054932 C-0.0584383 41.7119586 -0.0538683 36.42336337 -0.04882812 31.13476562 C-0.03810077 20.75649812 -0.0210311 10.37825138 0 0 Z " fill="#86B95A" transform="translate(287,73)"/>
<path d="M0 0 C1.55654297 0.00870117 1.55654297 0.00870117 3.14453125 0.01757812 C4.20800781 0.05431641 5.27148438 0.09105469 6.3671875 0.12890625 C7.97400391 0.13180664 7.97400391 0.13180664 9.61328125 0.13476562 C15.10609398 0.22711055 18.67635377 0.37768378 23.2421875 3.69140625 C25.36392294 6.8740094 25.49919903 7.70566316 25.53271484 11.35888672 C25.54547455 12.30351776 25.55823425 13.2481488 25.57138062 14.22140503 C25.57360626 15.24017731 25.57583191 16.25894958 25.578125 17.30859375 C25.5847818 18.3579007 25.5914386 19.40720764 25.59829712 20.48831177 C25.60842682 22.70914964 25.61311404 24.93001796 25.61279297 27.15087891 C25.61716177 30.54640996 25.65346718 33.94063687 25.69140625 37.3359375 C25.69727519 39.49348514 25.70124407 41.65103895 25.703125 43.80859375 C25.71749603 44.82331757 25.73186707 45.83804138 25.74667358 46.8835144 C25.71785283 51.3375239 25.69836742 53.9443663 23.33837891 57.80908203 C18.53436307 62.12296069 12.58685176 60.95433166 6.4296875 61.00390625 C4.64594727 61.04741211 4.64594727 61.04741211 2.82617188 61.09179688 C1.10430664 61.10436523 1.10430664 61.10436523 -0.65234375 61.1171875 C-1.70268799 61.13177002 -2.75303223 61.14635254 -3.83520508 61.16137695 C-7.50150222 60.57181702 -9.1428222 59.28239239 -11.7578125 56.69140625 C-12.69270387 53.88673214 -12.91452992 52.04303848 -12.98242188 49.1315918 C-13.00494019 48.2102092 -13.0274585 47.2888266 -13.05065918 46.33952332 C-13.12179582 42.13113865 -13.17915761 37.92292512 -13.21777344 33.71411133 C-13.2444043 31.49579303 -13.2853553 29.27759914 -13.34082031 27.05981445 C-13.41995321 23.85707708 -13.45307851 20.6566966 -13.4765625 17.453125 C-13.50955444 16.46543625 -13.54254639 15.4777475 -13.57653809 14.46012878 C-13.55727294 7.81584559 -13.55727294 7.81584559 -11.35305786 4.71562195 C-7.83315447 1.44620931 -4.89606204 -0.06441079 0 0 Z " fill="#252B3F" transform="translate(245.7578125,254.30859375)"/>
<path d="M0 0 C1.25683594 0.00322266 2.51367188 0.00644531 3.80859375 0.00976562 C5.12730469 0.01814453 6.44601562 0.02652344 7.8046875 0.03515625 C9.14452961 0.04017136 10.4843735 0.04473424 11.82421875 0.04882812 C15.10941956 0.06064539 18.39453147 0.07712008 21.6796875 0.09765625 C21.6796875 3.72765625 21.6796875 7.35765625 21.6796875 11.09765625 C14.4196875 11.09765625 7.1596875 11.09765625 -0.3203125 11.09765625 C-0.3203125 23.63765625 -0.3203125 36.17765625 -0.3203125 49.09765625 C3.9696875 49.09765625 8.2596875 49.09765625 12.6796875 49.09765625 C12.6796875 44.80765625 12.6796875 40.51765625 12.6796875 36.09765625 C10.3696875 36.09765625 8.0596875 36.09765625 5.6796875 36.09765625 C5.6796875 32.46765625 5.6796875 28.83765625 5.6796875 25.09765625 C11.9496875 25.09765625 18.2196875 25.09765625 24.6796875 25.09765625 C24.77177881 29.13688343 24.85132794 33.17341978 24.89941406 37.21313477 C24.9194674 38.58565648 24.94671778 39.95809342 24.98144531 41.33032227 C25.03023302 43.30837669 25.05057626 45.28706744 25.0703125 47.265625 C25.09125977 48.45438232 25.11220703 49.64313965 25.13378906 50.86791992 C24.5903025 54.73339506 23.38816728 56.34416106 20.6796875 59.09765625 C16.35663031 61.25918485 10.61554286 60.37192473 5.8671875 60.41015625 C4.08344727 60.45366211 4.08344727 60.45366211 2.26367188 60.49804688 C0.54180664 60.51061523 0.54180664 60.51061523 -1.21484375 60.5234375 C-2.26518799 60.53802002 -3.31553223 60.55260254 -4.39770508 60.56762695 C-8.06400222 59.97806702 -9.7053222 58.68864239 -12.3203125 56.09765625 C-13.25127564 53.30476683 -13.46621904 51.52347537 -13.51318359 48.62963867 C-13.52924652 47.72827682 -13.54530945 46.82691498 -13.56185913 45.89823914 C-13.60643822 41.7813707 -13.64736637 37.66466086 -13.67041016 33.54760742 C-13.68697155 31.37790197 -13.71426383 29.20825112 -13.75244141 27.03881836 C-13.80726863 23.9058002 -13.82909261 20.77405858 -13.84375 17.640625 C-13.86641937 16.67481003 -13.88908875 15.70899506 -13.91244507 14.71391296 C-13.8983702 10.21584789 -13.80829448 7.08418187 -10.91259766 3.5012207 C-7.0517154 -0.07858583 -5.1856172 -0.02335864 0 0 Z " fill="#272E3F" transform="translate(292.3203125,254.90234375)"/>
<path d="M0 0 C3.96 0 7.92 0 12 0 C12 16.17 12 32.34 12 49 C18.93 49 25.86 49 33 49 C33 52.63 33 56.26 33 60 C22.11 60 11.22 60 0 60 C0 40.2 0 20.4 0 0 Z " fill="#262C3F" transform="translate(195,255)"/>
<path d="M0 0 C1.39868317 -0.00639748 1.39868317 -0.00639748 2.82562256 -0.01292419 C4.37241447 -0.01224442 4.37241447 -0.01224442 5.95045471 -0.0115509 C7.03003448 -0.01490952 8.10961426 -0.01826813 9.22190857 -0.02172852 C12.81055331 -0.03127105 16.39915157 -0.03318326 19.98780823 -0.03425598 C22.47023539 -0.0374662 24.95266236 -0.04083008 27.43508911 -0.04434204 C32.64643289 -0.05034154 37.85776006 -0.05218109 43.06910706 -0.05158997 C48.43241844 -0.05105545 53.79565791 -0.05810403 59.15895081 -0.07209778 C65.6180471 -0.08871398 72.07707862 -0.09564741 78.53619576 -0.09498024 C81.00465828 -0.09616441 83.47312139 -0.10061045 85.94157219 -0.10831261 C89.38731787 -0.11805729 92.83283066 -0.11525638 96.27857971 -0.10920715 C97.82233528 -0.11763641 97.82233528 -0.11763641 99.39727783 -0.12623596 C100.3325531 -0.12204147 101.26782837 -0.11784698 102.23144531 -0.11352539 C103.04685508 -0.11407016 103.86226484 -0.11461493 104.702384 -0.1151762 C106.67921448 0.13371277 106.67921448 0.13371277 108.67921448 2.13371277 C108.80421448 4.75871277 108.80421448 4.75871277 108.67921448 7.13371277 C106.31019709 8.31822146 104.88097081 8.26198535 102.23817444 8.26742554 C101.30434433 8.27169052 100.37051422 8.27595551 99.40838623 8.28034973 C97.86698723 8.27966995 97.86698723 8.27966995 96.29444885 8.27897644 C94.67486015 8.28401436 94.67486015 8.28401436 93.02255249 8.28915405 C89.43934491 8.29868399 85.85618395 8.30060809 82.27296448 8.30168152 C79.79196656 8.3048923 77.31096883 8.30825623 74.82997131 8.31176758 C69.62460389 8.3177637 64.41925308 8.31960694 59.21388245 8.3190155 C53.85740699 8.31848075 48.50100348 8.32553617 43.14454651 8.33952332 C36.69078124 8.35613879 30.2370808 8.363073 23.78329468 8.36240578 C21.31762323 8.36358982 18.8519512 8.36803515 16.3862915 8.37573814 C12.94544441 8.38548223 9.50483056 8.3826823 6.0639801 8.37663269 C5.03638077 8.3822522 4.00878143 8.3878717 2.95004272 8.3936615 C2.01621262 8.38946701 1.08238251 8.38527252 0.12025452 8.38095093 C-0.69385643 8.3814957 -1.50796738 8.38204046 -2.34674835 8.38260174 C-4.32078552 8.13371277 -4.32078552 8.13371277 -6.32078552 6.13371277 C-5.68203117 0.89592709 -5.17079566 0.01063202 0 0 Z " fill="#87BA5A" transform="translate(158.32078552246094,143.8662872314453)"/>
<path d="M0 0 C0.85353058 0.00045319 1.70706116 0.00090637 2.5864563 0.00137329 C3.9278492 -0.00366463 3.9278492 -0.00366463 5.29634094 -0.00880432 C8.26814137 -0.01834461 11.23988563 -0.02025896 14.21170044 -0.02133179 C16.26814294 -0.02454219 18.32458521 -0.0279061 20.38102722 -0.03141785 C24.69788137 -0.0374168 29.01471547 -0.03925696 33.33157349 -0.03866577 C38.87475999 -0.0385641 44.41781854 -0.05221837 49.96097469 -0.06943798 C54.20992122 -0.08053314 58.45883657 -0.08258575 62.7077961 -0.08205605 C64.7520142 -0.08323984 66.79623301 -0.08768382 68.84043694 -0.09538841 C71.69467107 -0.10513847 74.5486243 -0.10233011 77.40286255 -0.09628296 C78.2543689 -0.10190247 79.10587524 -0.10752197 79.98318481 -0.11331177 C85.8310414 -0.08167833 85.8310414 -0.08167833 88.05935669 2.14663696 C87.69254011 5.08116957 87.19498423 6.01100942 85.05935669 8.14663696 C82.21384262 8.35059657 79.46525428 8.42979664 76.61819458 8.42129517 C75.74490005 8.4264061 74.87160553 8.43151703 73.97184753 8.43678284 C71.07516695 8.45072201 68.17872314 8.44971881 65.28201294 8.44741821 C63.27423514 8.45130281 61.26645816 8.45563699 59.25868225 8.46040344 C55.04613585 8.467875 50.83367324 8.46756765 46.62112427 8.46231079 C41.21586811 8.45651541 35.81095453 8.47344434 30.40575504 8.49665546 C26.2579802 8.51136905 22.1102883 8.51226774 17.96249199 8.50914574 C15.96933755 8.50966016 13.97617862 8.51492052 11.98304939 8.52495766 C9.19844264 8.53725857 6.41450886 8.53056865 3.62991333 8.51895142 C2.80227478 8.52659515 1.97463623 8.53423889 1.12191772 8.54211426 C-4.50825212 8.49004916 -4.50825212 8.49004916 -6.69152164 6.7560606 C-7.94064331 5.14663696 -7.94064331 5.14663696 -7.69064331 3.02163696 C-6.14340854 -0.84644996 -3.85699808 0.02129216 0 0 Z " fill="#8CBD61" transform="translate(159.94064331054688,129.85336303710938)"/>
<path d="M0 0 C0.67968338 -0.00335861 1.35936676 -0.00671722 2.05964661 -0.01017761 C4.31720788 -0.01971378 6.5746952 -0.02163206 8.83227539 -0.02270508 C10.39547253 -0.02591584 11.95866936 -0.02927977 13.52186584 -0.03279114 C16.80299578 -0.0387891 20.08409934 -0.04063036 23.36523438 -0.04003906 C27.57668608 -0.03993741 31.78796931 -0.05358997 35.99938107 -0.07081127 C39.22922039 -0.08191142 42.45901874 -0.08395888 45.6888752 -0.08342934 C47.24186344 -0.08461244 48.79485263 -0.08905263 50.34782219 -0.0967617 C52.51715887 -0.10652171 54.68612656 -0.10369961 56.85546875 -0.09765625 C58.0915538 -0.09908127 59.32763885 -0.10050629 60.60118103 -0.10197449 C63.49243164 0.14526367 63.49243164 0.14526367 65.49243164 2.14526367 C64.93687609 6.70081923 64.93687609 6.70081923 63.49243164 8.14526367 C61.32523578 8.25009499 59.15458277 8.28383213 56.98486328 8.29052734 C56.3051799 8.29388596 55.62549652 8.29724457 54.92521667 8.30070496 C52.6676554 8.31024113 50.41016808 8.3121594 48.15258789 8.31323242 C46.58939075 8.31644318 45.02619393 8.31980711 43.46299744 8.32331848 C40.1818675 8.32931645 36.90076394 8.3311577 33.61962891 8.33056641 C29.4081772 8.33046475 25.19689397 8.34411731 20.98548222 8.36133862 C17.75564289 8.37243877 14.52584454 8.37448623 11.29598808 8.37395668 C9.74299984 8.37513979 8.19001065 8.37957997 6.63704109 8.38728905 C4.46770441 8.39704906 2.29873672 8.39422695 0.12939453 8.38818359 C-1.10669052 8.38960861 -2.34277557 8.39103363 -3.61631775 8.39250183 C-6.50756836 8.14526367 -6.50756836 8.14526367 -8.50756836 6.14526367 C-7.71696372 -0.33769438 -6.24781038 0.0192792 0 0 Z " fill="#89BB5C" transform="translate(160.507568359375,113.854736328125)"/>
<path d="M0 0 C4.62 0 9.24 0 14 0 C14 12.87 14 25.74 14 39 C9.38 39 4.76 39 0 39 C0 26.13 0 13.26 0 0 Z " fill="#81B158" transform="translate(245,266)"/>
<path d="M0 0 C34.98 0 69.96 0 106 0 C105.67 1.65 105.34 3.3 105 5 C70.68 5 36.36 5 1 5 C0.67 3.35 0.34 1.7 0 0 Z " fill="#8ABB5E" transform="translate(203,417)"/>
<path d="M0 0 C0.79697296 0.00719055 1.59394592 0.0143811 2.41506958 0.02178955 C3.2541687 0.0214975 4.09326782 0.02120544 4.95779419 0.02090454 C7.73906699 0.022301 10.52007389 0.03787698 13.30130005 0.05352783 C15.22658136 0.05725684 17.15186456 0.06010434 19.07714844 0.06210327 C24.15053525 0.06974857 29.22380799 0.08940473 34.29714966 0.11151123 C39.47169451 0.13195038 44.64625774 0.14110085 49.8208313 0.15118408 C59.97843357 0.17264979 70.13595108 0.20679652 80.29348755 0.24884033 C81.28348755 2.22884033 81.28348755 2.22884033 82.29348755 4.24884033 C79.73418293 6.80814495 78.07543979 6.48447668 74.5869751 6.49768066 C73.79000214 6.49049011 72.99302917 6.48329956 72.17190552 6.47589111 C71.3328064 6.47618317 70.49370728 6.47647522 69.62918091 6.47677612 C66.84790811 6.47537966 64.06690121 6.45980368 61.28567505 6.44415283 C59.36039374 6.44042382 57.43511054 6.43757632 55.50982666 6.43557739 C50.43643985 6.42793209 45.36316711 6.40827593 40.28982544 6.38616943 C35.11528059 6.36573028 29.94071736 6.35657981 24.7661438 6.34649658 C14.60854153 6.32503087 4.45102402 6.29088414 -5.70651245 6.24884033 C-6.36651245 4.92884033 -7.02651245 3.60884033 -7.70651245 2.24884033 C-5.14720783 -0.31046429 -3.48846469 0.01320399 0 0 Z " fill="#91C069" transform="translate(218.70651245117188,405.75115966796875)"/>
</svg>
